<?xml version="1.0" encoding="UTF-8"?>
<svg id="Layer_2" data-name="Layer 2" xmlns="http://www.w3.org/2000/svg" viewBox="0 0 278.89 71.63">
  <defs>
    <style>
      .cls-1, .cls-2 {
        fill: #fff;
      }

      .cls-1, .cls-2, .cls-3, .cls-4, .cls-5 {
        fill-rule: evenodd;
      }

      .cls-2 {
        stroke: #1a2162;
        stroke-miterlimit: 2.61;
        stroke-width: .9px;
      }

      .cls-3 {
        fill: #ee9fa6;
      }

      .cls-4 {
        fill: #dfbb00;
      }

      .cls-5 {
        fill: #1a2162;
      }
    </style>
  </defs>
  <g id="Layer_1-2" data-name="Layer 1">
    <g>
      <path class="cls-1" d="M77.92,12.29h-9.25v-2.81c0-1.31-.12-2.15-.36-2.51-.23-.36-.62-.54-1.17-.54-.6,0-1.05,.24-1.36,.73-.31,.48-.46,1.21-.46,2.19,0,1.26,.18,2.22,.52,2.86,.34,.63,1.27,1.41,2.82,2.32,4.41,2.62,7.2,4.77,8.34,6.44,1.15,1.67,1.73,4.37,1.73,8.08,0,2.7-.32,4.7-.96,5.98-.64,1.28-1.86,2.35-3.7,3.22-1.82,.87-3.95,1.3-6.37,1.3-2.66,0-4.93-.5-6.82-1.5-1.88-1-3.11-2.27-3.7-3.82-.58-1.55-.87-3.75-.87-6.59v-2.49h9.25v4.62c0,1.42,.13,2.34,.39,2.74,.26,.41,.72,.61,1.38,.61s1.15-.26,1.48-.78c.32-.51,.48-1.28,.48-2.29,0-2.23-.31-3.7-.92-4.38-.64-.69-2.19-1.84-4.66-3.46-2.47-1.62-4.1-2.81-4.91-3.54-.8-.74-1.47-1.75-1.99-3.05-.52-1.3-.79-2.95-.79-4.97,0-2.9,.37-5.03,1.12-6.38,.75-1.34,1.95-2.39,3.62-3.15,1.67-.76,3.68-1.14,6.04-1.14,2.58,0,4.78,.42,6.6,1.24,1.82,.83,3.02,1.87,3.61,3.14,.59,1.26,.89,3.39,.89,6.41v1.5h0ZM91.87,.77V38.74h-9.97V.77h9.97Zm27.61,0l-5.04,37.97h-15.08L93.57,.77h10.51c1.19,10.47,2.05,19.33,2.59,26.57,.53-7.32,1.08-13.82,1.64-19.49l.66-7.08h10.51Zm18.26,0h-14.4l-5.05,37.97h10.31l.54-6.82h3.59l.54,6.82h10.18L137.74,.77h0Zm-5.29,24.43h-3.38c.27-3.37,.89-8.7,1.87-15.99,.53,6.36,1.03,11.69,1.51,15.99h0Zm42.29-12.91h-9.25v-2.81c0-1.31-.12-2.15-.36-2.51-.23-.36-.62-.54-1.17-.54-.6,0-1.05,.24-1.36,.73-.31,.48-.46,1.21-.46,2.19,0,1.26,.18,2.22,.52,2.86,.34,.63,1.27,1.41,2.82,2.32,4.41,2.62,7.2,4.77,8.34,6.44,1.15,1.67,1.73,4.37,1.73,8.08,0,2.7-.32,4.7-.96,5.98-.64,1.28-1.86,2.35-3.7,3.22-1.82,.87-3.95,1.3-6.37,1.3-2.66,0-4.93-.5-6.82-1.5-1.88-1-3.11-2.27-3.7-3.82-.58-1.55-.87-3.75-.87-6.59v-2.49h9.25v4.62c0,1.42,.13,2.34,.39,2.74,.26,.41,.72,.61,1.38,.61s1.15-.26,1.48-.78c.32-.51,.48-1.28,.48-2.29,0-2.23-.31-3.7-.92-4.38-.64-.69-2.19-1.84-4.66-3.46-2.47-1.62-4.1-2.81-4.91-3.54-.8-.74-1.47-1.75-1.99-3.05-.52-1.3-.79-2.95-.79-4.97,0-2.9,.37-5.03,1.12-6.38,.75-1.34,1.95-2.39,3.62-3.15,1.67-.76,3.68-1.14,6.04-1.14,2.58,0,4.78,.42,6.6,1.24,1.82,.83,3.02,1.87,3.61,3.14,.59,1.26,.89,3.39,.89,6.41v1.5h0ZM188.7,.77V38.74h-9.97V.77h9.97Zm27.61,0l-5.04,37.97h-15.08L190.4,.77h10.51c1.19,10.47,2.05,19.33,2.59,26.57,.53-7.32,1.08-13.82,1.64-19.49l.66-7.08h10.51Zm18.26,0h-14.4l-5.05,37.97h10.31l.54-6.82h3.59l.54,6.82h10.18L234.57,.77h0Zm-5.29,24.43h-3.38c.27-3.37,.89-8.7,1.87-15.99,.53,6.36,1.03,11.69,1.51,15.99h0ZM264.2,.77V38.74h-8.72l-5.18-17.26v17.26h-8.33V.77h8.33l5.57,17.1V.77h8.33Zm13.97,0V38.74h-9.97V.77h9.97Z"/>
      <path class="cls-1" d="M56.48,43.65h5.47c3.53,0,5.92,.16,7.16,.47,1.25,.32,2.19,.84,2.84,1.56,.65,.72,1.06,1.52,1.22,2.41,.16,.89,.24,2.63,.24,5.22v9.59c0,2.46-.12,4.1-.36,4.93-.24,.83-.65,1.48-1.24,1.95-.59,.47-1.32,.79-2.19,.98-.87,.18-2.18,.28-3.93,.28h-9.22v-27.4h0Zm7.33,4.68v18.05c1.04,0,1.68-.21,1.92-.62,.24-.42,.36-1.54,.36-3.37v-10.66c0-1.24-.04-2.04-.12-2.39-.08-.35-.26-.61-.55-.77-.28-.17-.82-.25-1.61-.25h0Zm12.34-4.68h12.21v5.47h-4.88v5.23h4.56v5.2h-4.56v6.03h5.37v5.47h-12.7v-27.4h0Zm31.55,10.11h-7.33v-2.49c0-1.57-.07-2.55-.2-2.94-.14-.4-.46-.59-.97-.59-.44,0-.74,.17-.9,.51-.16,.33-.24,1.21-.24,2.6v13.14c0,1.22,.08,2.04,.24,2.42,.16,.39,.47,.58,.95,.58,.52,0,.87-.22,1.06-.66,.18-.44,.28-1.3,.28-2.57v-3.24h-1.42v-4.16h8.54v14.69h-4.61l-.68-1.96c-.5,.85-1.13,1.48-1.88,1.91-.76,.43-1.65,.64-2.68,.64-1.23,0-2.37-.29-3.45-.87-1.07-.58-1.88-1.3-2.43-2.16-.56-.85-.9-1.76-1.04-2.7-.14-.94-.21-2.36-.21-4.24v-8.14c0-2.61,.14-4.51,.43-5.7,.29-1.19,1.12-2.27,2.49-3.26,1.37-.99,3.14-1.48,5.32-1.48s3.91,.43,5.33,1.29c1.41,.86,2.34,1.88,2.76,3.05,.43,1.18,.64,2.89,.64,5.14v1.18h0Zm2.86-10.11h5.18c3.45,0,5.79,.13,7.01,.39,1.22,.26,2.22,.92,2.99,1.99,.77,1.06,1.16,2.77,1.16,5.1,0,2.13-.27,3.56-.82,4.29-.54,.73-1.61,1.17-3.21,1.32,1.45,.35,2.43,.82,2.92,1.41,.5,.58,.81,1.13,.93,1.62,.12,.49,.18,1.84,.18,4.05v7.23h-6.8v-9.12c0-1.47-.12-2.37-.36-2.72-.23-.35-.85-.53-1.85-.53v12.37h-7.33v-27.4h0Zm7.33,4.68v6.1c.82,0,1.39-.11,1.71-.33,.33-.22,.49-.94,.49-2.14v-1.51c0-.87-.16-1.44-.47-1.71-.31-.27-.9-.4-1.73-.4h0Zm11.83-4.68h12.21v5.47h-4.88v5.23h4.56v5.2h-4.56v6.03h5.37v5.47h-12.7v-27.4h0Zm14.79,0h12.21v5.47h-4.88v5.23h4.56v5.2h-4.56v6.03h5.37v5.47h-12.7v-27.4h0Zm38.14,11.95h-7.33v-4.76c0-1.39-.08-2.25-.23-2.59-.15-.34-.5-.51-1.03-.51-.59,0-.97,.21-1.13,.62-.16,.42-.24,1.32-.24,2.71v12.71c0,1.33,.08,2.2,.24,2.61,.16,.4,.52,.61,1.08,.61s.9-.2,1.06-.61c.17-.4,.25-1.36,.25-2.87v-3.45h7.33v1.07c0,2.84-.21,4.85-.62,6.04-.41,1.19-1.32,2.23-2.73,3.12-1.41,.89-3.14,1.34-5.21,1.34s-3.91-.38-5.3-1.13c-1.39-.76-2.31-1.8-2.76-3.14s-.68-3.35-.68-6.03v-8c0-1.97,.07-3.45,.21-4.44,.14-.99,.55-1.94,1.25-2.85,.69-.91,1.64-1.63,2.86-2.16,1.22-.53,2.63-.79,4.22-.79,2.15,0,3.93,.4,5.34,1.22,1.4,.81,2.32,1.82,2.76,3.03,.44,1.21,.66,3.09,.66,5.65v2.6h0Zm19.31,4.11c0,2.75-.07,4.7-.2,5.84-.13,1.15-.55,2.19-1.25,3.14-.7,.95-1.65,1.67-2.84,2.18-1.19,.51-2.58,.76-4.16,.76s-2.85-.24-4.05-.72c-1.2-.48-2.16-1.2-2.89-2.15-.73-.96-1.16-2-1.3-3.13-.14-1.13-.21-3.11-.21-5.92v-4.69c0-2.75,.07-4.7,.2-5.84,.13-1.15,.55-2.19,1.25-3.14,.7-.95,1.65-1.67,2.84-2.18,1.19-.51,2.58-.76,4.16-.76s2.85,.24,4.05,.72c1.2,.48,2.16,1.19,2.89,2.15,.73,.96,1.16,2,1.31,3.13,.14,1.13,.21,3.11,.21,5.92v4.69h0Zm-7.33-9c0-1.27-.07-2.08-.21-2.44-.14-.35-.43-.53-.87-.53-.37,0-.66,.14-.86,.43-.2,.28-.3,1.13-.3,2.54v12.79c0,1.59,.07,2.57,.2,2.94,.13,.38,.43,.56,.91,.56s.8-.21,.94-.64c.14-.43,.2-1.45,.2-3.06v-12.58h0Zm17.41-7.06v21.93h4.41v5.47h-11.74v-27.4h7.33Zm13.53,0v21.93h4.41v5.47h-11.74v-27.4h7.33Zm6.2,0h12.21v5.47h-4.88v5.23h4.56v5.2h-4.56v6.03h5.37v5.47h-12.7v-27.4h0Zm31.55,10.11h-7.33v-2.49c0-1.57-.07-2.55-.2-2.94-.14-.4-.46-.59-.97-.59-.44,0-.74,.17-.9,.51-.16,.33-.24,1.21-.24,2.6v13.14c0,1.22,.08,2.04,.24,2.42,.16,.39,.47,.58,.95,.58,.52,0,.87-.22,1.06-.66,.18-.44,.28-1.3,.28-2.57v-3.24h-1.42v-4.16h8.54v14.69h-4.61l-.68-1.96c-.5,.85-1.13,1.48-1.88,1.91-.76,.43-1.66,.64-2.68,.64-1.23,0-2.37-.29-3.45-.87-1.07-.58-1.88-1.3-2.43-2.16-.56-.85-.9-1.76-1.04-2.7-.14-.94-.21-2.36-.21-4.24v-8.14c0-2.61,.14-4.51,.43-5.7,.29-1.19,1.12-2.27,2.49-3.26,1.37-.99,3.14-1.48,5.32-1.48s3.91,.43,5.33,1.29c1.41,.86,2.34,1.88,2.76,3.05,.43,1.18,.64,2.89,.64,5.14v1.18h0Zm2.86-10.11h12.21v5.47h-4.88v5.23h4.55v5.2h-4.55v6.03h5.37v5.47h-12.7v-27.4Z"/>
      <g>
        <path class="cls-5" d="M15.48,1.09h19.96c3.26,0,6.15,2.66,5.93,5.88-.77,11.1-1.09,22.25,0,33.59,.31,3.22-2.68,6.2-5.93,5.88-7.21-.71-12.27-.86-19.96,0-3.24,.36-6.07-2.65-5.93-5.88,.51-11.19,.42-22.39,0-33.59-.12-3.23,2.67-5.88,5.93-5.88Z"/>
        <polygon class="cls-4" points="37.66 45.08 35.35 45.41 26.53 44.59 13.6 45.25 11.82 44 39.14 3.82 39.67 4.57 40.13 5.76 39.14 24.74 40.02 41.96 39.46 43.73 37.66 45.08"/>
        <path class="cls-3" d="M12.99,2.85c3.93-1.01,12.08-.4,12.08-.4,0,0,9.21-.76,12.42,.33,.74,.25,.97,.5,1.02,.58,.45,.13,.82,.52,.79,.53-9.08,13.38-18.31,26.68-27.39,40.06-.22-.33-.43-.67-.65-1-.14-.41-.27-.82-.41-1.24,.19-6.79,.38-13.59,.56-20.38-.19-5.34-.38-10.68-.56-16.02,0,0,1.35-2.27,2.14-2.47Z"/>
        <path class="cls-5" d="M35.56,45.17c-3-.3-6.01-.53-9.03-.58-3.76-.07-7.46,.17-11.2,.59-2.5,.28-4.69-2.16-4.51-4.56,.85-11.22,.79-22.47,0-33.69-.18-2.55,2.17-4.56,4.65-4.56,3.32,.06,6.64,.56,9.95,.56,3.34,0,6.67-.5,10.01-.56,2.43-.04,4.91,1.97,4.66,4.52-1.14,11.27-1.43,22.54,0,33.8,.31,2.43-2.1,4.73-4.53,4.49h0Zm5.8-4.61c-1.09-11.33-.77-22.49,0-33.59,.22-3.23-2.67-5.88-5.93-5.88H15.48c-3.26,0-6.05,2.65-5.93,5.88,.42,11.2,.51,22.39,0,33.59-.15,3.23,2.69,6.25,5.93,5.88,7.69-.86,12.75-.71,19.96,0,3.24,.32,6.24-2.66,5.93-5.88Z"/>
        <path class="cls-2" d="M5.52,43.14s17.88,13.99,39.99,.55l4.76,5.84s-22.04,15.94-49.6,0l4.85-6.38Z"/>
        <path class="cls-4" d="M2.25,64.37l-.77,1.84s7.49,5.27,23.81,5.27,23.87-5.27,23.87-5.27l-.84-1.84s-23.94,8.19-46.07,0Z"/>
        <path class="cls-5" d="M6.57,52.85l-4.32,11.52s6.71,5.31,23.04,5.31,23.04-5.31,23.04-5.31l-4.32-11.51s-15.3,8.18-37.43-.01Z"/>
        <path class="cls-5" d="M24.91,43.51c0,.25-.2,.45-.45,.45h-.82c-.25,0-.45-.2-.45-.45v-5.13s-.91,0-.91,0c-.49,0-.9-.41-.9-.9v-2.83c0-.05,0-.1,.01-.15h-.28c-4.69-.03-6.08-1.27-6.47-1.68-3.37-3.24-1.05-10.53-1.05-10.53,2.71-8.41,0-14.69,0-14.69,7.25,2.12,4.02,13.89,4.02,13.89-2.27,9.02,2.41,8.76,2.66,8.76,5.16-.05,4.3-6.77,4.16-7.08-.72-1.64-1.75-3.12-2.62-4.69l3.67-14.42,3.67,14.42c-.87,1.56-1.9,3.05-2.62,4.69-.14,.31-1,7.03,4.16,7.08,.24,0,4.93,.26,2.66-8.76,0,0-3.23-11.77,4.02-13.89,0,0-2.71,6.28,0,14.69,0,0,2.32,7.29-1.05,10.53-.38,.41-1.77,1.65-6.47,1.68h-.72c0,.05,.01,.1,.01,.15v2.83c0,.49-.41,.9-.9,.9h-.25v.03s0,5.1,0,5.1c0,.25-.2,.45-.45,.45h-.82c-.25,0-.45-.2-.45-.45v-5.13s-1.35,0-1.35,0v.03s0,5.1,0,5.1Z"/>
        <path class="cls-1" d="M25.44,29.45h.03s-.03,0-.03,0h0Zm10.53-2.92s-.79-7.79-.87-9.81c0,0-.25-5,.32-6.17,0,0-2.26,1.43-1.06,9.57,0,0,.8,5.55,.88,6.19,.01,.51,.77,7.79-6.5,5.68,0,0-1.78-.68-2.8-2.47h0s0,0,0,0c-.01-.02-.03-.04-.04-.06l-.02-15.83c0-2.48-.37-2.64-.37-2.64-.34,.27-.47,2.7-.47,2.7v15.73s-.04,.07-.06,.1h0c-1.02,1.79-2.8,2.47-2.8,2.47-7.27,2.11-6.52-5.16-6.5-5.68,.08-.64,.88-6.19,.88-6.19,1.2-8.14-1.05-9.57-1.05-9.57,.58,1.17,.32,6.17,.32,6.17-.08,2.02-.87,9.81-.87,9.81-.59,6.44,4.22,6.44,4.22,6.44,3.95,.5,6.21-2.77,6.29-2.89,.07,.11,2.34,3.38,6.29,2.89,0,0,4.81,0,4.22-6.44Z"/>
        <path class="cls-1" d="M27.04,36.62c0,.43-.7,.79-1.57,.79s-1.57-.35-1.57-.79,.7-.79,1.57-.79,1.57,.35,1.57,.79Z"/>
        <path class="cls-1" d="M25.22,36.61c0,.5-.52,.9-1.17,.9s-1.17-.4-1.17-.9,.52-.9,1.17-.9,1.17,.4,1.17,.9Z"/>
        <path class="cls-1" d="M28.21,36.61c0,.5-.52,.9-1.17,.9s-1.17-.4-1.17-.9,.52-.9,1.17-.9,1.17,.4,1.17,.9Z"/>
        <path class="cls-1" d="M22.92,34.8c-.08-.4,1-.95,2.51-.8,0,0,2.04-.13,2.74,.71,.43,.52-1.54,1.02-2.7,0,0,0-2.33,1.23-2.55,.08Z"/>
        <polygon class="cls-5" points="43.98 53.14 50.96 49.54 48.88 56.73 43.98 53.14"/>
        <polygon class="cls-5" points="45.41 52.92 49.74 50.72 48.42 55.41 45.41 52.92"/>
        <polygon class="cls-5" points="45.41 52.92 49.74 50.72 48.42 55.41 45.41 52.92"/>
        <polygon class="cls-5" points="6.76 52.79 .05 49.62 2.08 56.77 6.76 52.79"/>
        <polygon class="cls-1" points="45.41 52.92 49.74 50.72 48.42 55.41 45.41 52.92"/>
        <polygon class="cls-1" points="5.39 52.77 1.15 50.65 2.39 55.35 5.39 52.77"/>
        <path class="cls-4" d="M6.57,52.94l-.64,1.52s5.82,4.44,19.27,4.44,19.61-4.09,19.61-4.09l-.69-1.52c-.1,1.2-19.48,8.46-37.55-.34Z"/>
        <path class="cls-5" d="M6.59,46.82l.83,.55-1.32,2.07,1.3,.86-.43,.68-2.13-1.41,1.74-2.75h0Zm2.12,1.31l-1.3,2.99,2.47,1.12,.3-.68-1.56-.71,.26-.59,1.41,.64,.27-.61-1.41-.64,.21-.48,1.52,.69,.28-.64-2.42-1.1h0Zm3.72,4.31l-1.08-.32-.3,.48-.97-.28,2.04-2.81,1.04,.3,.27,3.49-1-.29v-.56h0Zm0-.74l-.02-1.23-.66,1.03,.68,.2h0Zm1.33,1.64l.61-3.21,1.62,.32c.3,.06,.52,.13,.67,.22,.15,.08,.26,.21,.33,.37,.07,.16,.09,.35,.05,.55-.03,.18-.1,.32-.2,.44-.1,.11-.22,.2-.37,.25-.09,.03-.21,.05-.37,.06,.11,.06,.18,.12,.23,.17,.03,.03,.07,.1,.12,.2,.05,.1,.08,.18,.1,.23l.29,1.03-1.1-.22-.33-1.09c-.04-.14-.08-.23-.13-.28-.06-.06-.14-.1-.22-.12l-.09-.02-.25,1.3-.98-.19h0Zm1.34-1.72l.41,.08s.13,.01,.27,0c.07,0,.13-.02,.18-.07,.05-.05,.08-.1,.1-.17,.02-.1,0-.19-.05-.26-.05-.07-.17-.12-.35-.16l-.43-.08-.12,.65h0Zm2.48-.92l.92,.12,.98,1.95,.22-1.8,.93,.12-.39,3.25-.93-.12-.98-1.93-.21,1.78-.92-.12,.39-3.25h0Zm4.71,.63l3.01,.11-.03,.81-1.01-.04-.08,2.46-.99-.04,.08-2.46-1.01-.04,.03-.81h0Zm3.01,1.72c.01,.38,.1,.7,.25,.95,.16,.25,.35,.43,.59,.54,.24,.11,.54,.16,.9,.14,.36-.01,.65-.09,.88-.24,.23-.14,.41-.34,.53-.59,.12-.25,.17-.57,.16-.95-.02-.53-.18-.93-.47-1.21-.3-.28-.71-.41-1.25-.4-.52,.02-.92,.18-1.2,.49-.28,.31-.41,.73-.39,1.26h0Zm.99-.03c-.01-.33,.04-.57,.16-.72,.12-.15,.27-.23,.47-.23,.21,0,.38,.06,.5,.19,.13,.14,.2,.36,.21,.67,.01,.37-.04,.62-.15,.77-.11,.15-.27,.22-.49,.23-.21,0-.37-.06-.5-.2-.13-.14-.19-.38-.2-.71h0Zm4.09,.26l.92-.19c.04,.15,.1,.26,.17,.34,.12,.12,.27,.16,.46,.13,.14-.02,.24-.07,.31-.15,.07-.08,.09-.16,.08-.25-.01-.08-.06-.15-.14-.21-.08-.06-.26-.09-.53-.12-.44-.04-.77-.12-.97-.26-.21-.14-.33-.33-.36-.59-.02-.17,0-.33,.08-.49,.07-.16,.2-.3,.38-.41,.18-.11,.43-.19,.76-.24,.41-.06,.73-.03,.96,.1s.39,.35,.48,.68l-.92,.19c-.04-.14-.11-.24-.2-.3-.09-.05-.2-.07-.34-.05-.11,.02-.2,.05-.25,.11-.05,.06-.07,.12-.06,.19,0,.05,.04,.09,.09,.13,.05,.04,.17,.06,.35,.07,.44,.03,.76,.08,.96,.15,.2,.07,.35,.17,.45,.3,.1,.13,.17,.28,.19,.46,.03,.21,0,.41-.09,.6-.09,.19-.23,.35-.42,.47-.19,.12-.44,.2-.75,.25-.54,.08-.93,.03-1.16-.16-.24-.18-.39-.43-.46-.76h0Zm2.89-2.59l.61,3.21,2.65-.53-.14-.73-1.68,.33-.12-.63,1.51-.3-.12-.66-1.51,.3-.1-.51,1.63-.32-.13-.69-2.6,.52h0Zm3.81,2.59l-.83-3.16,1.59-.44c.3-.08,.53-.12,.7-.11,.17,0,.32,.07,.45,.18,.13,.11,.23,.27,.28,.47,.05,.18,.05,.34,0,.48-.04,.15-.11,.28-.22,.39-.07,.07-.17,.15-.3,.22,.12,0,.22,.02,.28,.05,.04,.02,.11,.06,.2,.12,.09,.07,.15,.12,.19,.16l.7,.79-1.08,.3-.76-.83c-.1-.11-.18-.17-.24-.2-.08-.03-.17-.03-.25,0l-.08,.02,.34,1.28-.96,.26h0Zm.47-2.14l.4-.11s.12-.05,.24-.11c.06-.03,.1-.08,.13-.14,.03-.06,.03-.13,.01-.2-.03-.1-.08-.17-.16-.21-.08-.04-.2-.03-.38,.02l-.42,.12,.17,.64h0Zm1.34-1.74l2.28,2.61,1-.39-.04-3.49-.94,.37,.16,2.46-1.5-1.94-.97,.38h0Zm3.33-1.38l2.22-1.48,.37,.59-1.39,.92,.28,.44,1.29-.86,.36,.56-1.29,.86,.34,.54,1.43-.95,.4,.62-2.26,1.5-1.74-2.75Z"/>
        <path class="cls-1" d="M7.67,63.09l1.7,.39c-.09,.58-.02,1.05,.19,1.41,.21,.36,.58,.63,1.09,.8,.54,.18,.99,.2,1.34,.07,.35-.14,.58-.36,.68-.67,.07-.2,.06-.38,0-.56-.07-.18-.23-.37-.48-.56-.17-.14-.58-.41-1.22-.82-.82-.53-1.36-1.02-1.62-1.47-.36-.63-.42-1.28-.2-1.94,.14-.43,.4-.79,.76-1.08,.37-.29,.81-.46,1.33-.5,.52-.04,1.1,.04,1.74,.26,1.04,.35,1.75,.85,2.12,1.49,.37,.64,.44,1.35,.21,2.14l-1.71-.51c.07-.46,.02-.82-.15-1.08-.17-.27-.49-.48-.96-.64-.49-.16-.9-.19-1.24-.08-.22,.07-.37,.21-.44,.43-.07,.2-.04,.4,.08,.59,.15,.25,.6,.61,1.36,1.08,.75,.47,1.29,.87,1.61,1.21,.32,.34,.53,.73,.63,1.16,.1,.43,.06,.91-.12,1.44-.16,.48-.44,.88-.85,1.21-.41,.33-.89,.51-1.44,.55-.55,.04-1.2-.06-1.92-.31-1.06-.36-1.78-.87-2.18-1.55-.4-.68-.5-1.5-.3-2.47Z"/>
        <path class="cls-1" d="M16.38,65.44l1.74,.02c.04,.59,.2,1.03,.49,1.34s.7,.49,1.23,.55c.57,.06,1.01-.01,1.32-.22,.31-.21,.49-.47,.52-.8,.02-.21-.02-.39-.12-.55-.1-.16-.3-.31-.59-.45-.2-.1-.65-.27-1.37-.54-.92-.34-1.55-.7-1.89-1.09-.48-.54-.69-1.16-.61-1.86,.05-.45,.22-.85,.51-1.21,.3-.36,.69-.62,1.19-.77,.5-.15,1.08-.19,1.75-.12,1.09,.12,1.89,.45,2.39,1,.5,.55,.72,1.23,.66,2.05l-1.78-.13c-.03-.46-.15-.8-.38-1.03-.23-.22-.59-.37-1.08-.42-.51-.06-.92,0-1.23,.19-.2,.12-.31,.29-.34,.52-.02,.21,.05,.39,.2,.56,.2,.21,.72,.47,1.56,.77,.84,.3,1.45,.58,1.83,.84,.39,.26,.68,.59,.87,1,.19,.4,.26,.88,.2,1.43-.05,.5-.25,.96-.57,1.36-.33,.41-.76,.69-1.29,.85-.53,.16-1.18,.19-1.94,.11-1.11-.12-1.93-.47-2.47-1.05-.54-.57-.81-1.36-.82-2.35Z"/>
        <path class="cls-1" d="M26.3,60.04l3.24-.21c.73-.05,1.29-.03,1.68,.06,.52,.12,.98,.36,1.37,.72,.39,.36,.7,.82,.93,1.37,.23,.55,.37,1.24,.42,2.06,.05,.72,0,1.35-.15,1.89-.18,.66-.46,1.19-.84,1.61-.29,.32-.69,.58-1.2,.78-.38,.15-.9,.25-1.56,.29l-3.33,.22-.57-8.79h0Zm1.88,1.37l.38,5.82,1.32-.09c.49-.03,.85-.08,1.06-.15,.28-.09,.51-.23,.69-.41,.18-.18,.31-.48,.41-.88,.1-.4,.12-.94,.08-1.62-.04-.68-.14-1.2-.28-1.55-.14-.36-.33-.63-.56-.82-.23-.19-.51-.31-.85-.36-.25-.04-.74-.04-1.46,.01l-.79,.05Z"/>
        <path class="cls-1" d="M41.29,63.07l1.8,.02c.02,1.01-.2,1.82-.66,2.45-.46,.62-1.14,1.07-2.05,1.34-1.12,.33-2.16,.22-3.11-.34-.95-.56-1.62-1.5-2.01-2.83-.41-1.41-.37-2.61,.13-3.6,.5-.99,1.34-1.66,2.52-2.01,1.04-.3,1.97-.24,2.79,.18,.49,.25,.93,.68,1.32,1.31l-1.57,.9c-.23-.41-.54-.69-.93-.85-.39-.16-.82-.17-1.27-.04-.63,.18-1.07,.56-1.33,1.12-.26,.56-.24,1.35,.05,2.36,.31,1.07,.73,1.77,1.25,2.11,.52,.34,1.09,.42,1.7,.24,.45-.13,.8-.39,1.05-.78s.34-.91,.3-1.57Z"/>
      </g>
    </g>
  </g>
</svg>